<mxfile host="app.diagrams.net" agent="Mozilla/5.0 (Windows NT 10.0; Win64; x64) AppleWebKit/537.36 (KHTML, like Gecko) Chrome/129.0.0.0 Safari/537.36" version="24.7.17">
  <diagram name="Page-1" id="6133507b-19e7-1e82-6fc7-422aa6c4b21f">
    <mxGraphModel dx="2763" dy="2365" grid="1" gridSize="10" guides="1" tooltips="1" connect="1" arrows="1" fold="1" page="1" pageScale="1" pageWidth="1100" pageHeight="850" background="none" math="0" shadow="0">
      <root>
        <mxCell id="0" />
        <mxCell id="1" parent="0" />
        <mxCell id="hrAzMz9kFtenhOnaUR5V-56" style="edgeStyle=orthogonalEdgeStyle;rounded=0;orthogonalLoop=1;jettySize=auto;html=1;entryX=0.5;entryY=0;entryDx=0;entryDy=0;dashed=1;" edge="1" parent="1" source="hrAzMz9kFtenhOnaUR5V-2" target="hrAzMz9kFtenhOnaUR5V-31">
          <mxGeometry relative="1" as="geometry" />
        </mxCell>
        <mxCell id="hrAzMz9kFtenhOnaUR5V-2" value="ScriptLists" style="swimlane;html=1;fontStyle=1;align=center;verticalAlign=top;childLayout=stackLayout;horizontal=1;startSize=26;horizontalStack=0;resizeParent=1;resizeLast=0;collapsible=1;marginBottom=0;swimlaneFillColor=#ffffff;rounded=0;shadow=0;comic=0;labelBackgroundColor=none;strokeWidth=1;fillColor=#dae8fc;fontFamily=Verdana;fontSize=12;strokeColor=#6c8ebf;" vertex="1" parent="1">
          <mxGeometry x="220" y="40" width="180" height="120" as="geometry" />
        </mxCell>
        <mxCell id="hrAzMz9kFtenhOnaUR5V-3" value="+ Extract(browser): &amp;lt;Promise Array&amp;lt;List&amp;gt;" style="text;html=1;strokeColor=none;fillColor=none;align=left;verticalAlign=top;spacingLeft=4;spacingRight=4;whiteSpace=wrap;overflow=hidden;rotatable=0;points=[[0,0.5],[1,0.5]];portConstraint=eastwest;" vertex="1" parent="hrAzMz9kFtenhOnaUR5V-2">
          <mxGeometry y="26" width="180" height="54" as="geometry" />
        </mxCell>
        <mxCell id="hrAzMz9kFtenhOnaUR5V-57" style="edgeStyle=orthogonalEdgeStyle;rounded=0;orthogonalLoop=1;jettySize=auto;html=1;dashed=1;" edge="1" parent="1" source="hrAzMz9kFtenhOnaUR5V-4" target="hrAzMz9kFtenhOnaUR5V-23">
          <mxGeometry relative="1" as="geometry">
            <Array as="points">
              <mxPoint x="490" y="471" />
            </Array>
          </mxGeometry>
        </mxCell>
        <mxCell id="hrAzMz9kFtenhOnaUR5V-4" value="ScriptList" style="swimlane;html=1;fontStyle=1;align=center;verticalAlign=top;childLayout=stackLayout;horizontal=1;startSize=26;horizontalStack=0;resizeParent=1;resizeLast=0;collapsible=1;marginBottom=0;swimlaneFillColor=#ffffff;rounded=0;shadow=0;comic=0;labelBackgroundColor=none;strokeWidth=1;fillColor=#dae8fc;fontFamily=Verdana;fontSize=12;strokeColor=#6c8ebf;" vertex="1" parent="1">
          <mxGeometry x="420" y="40" width="180" height="120" as="geometry" />
        </mxCell>
        <mxCell id="hrAzMz9kFtenhOnaUR5V-5" value="+ Extract(Array&amp;lt;List&amp;gt;): &amp;lt;Promise Array&amp;lt;property_info&amp;gt;" style="text;html=1;strokeColor=none;fillColor=none;align=left;verticalAlign=top;spacingLeft=4;spacingRight=4;whiteSpace=wrap;overflow=hidden;rotatable=0;points=[[0,0.5],[1,0.5]];portConstraint=eastwest;" vertex="1" parent="hrAzMz9kFtenhOnaUR5V-4">
          <mxGeometry y="26" width="180" height="54" as="geometry" />
        </mxCell>
        <mxCell id="hrAzMz9kFtenhOnaUR5V-9" style="edgeStyle=orthogonalEdgeStyle;rounded=0;orthogonalLoop=1;jettySize=auto;html=1;entryX=0.5;entryY=0;entryDx=0;entryDy=0;dashed=1;" edge="1" parent="1" source="hrAzMz9kFtenhOnaUR5V-7" target="hrAzMz9kFtenhOnaUR5V-2">
          <mxGeometry relative="1" as="geometry" />
        </mxCell>
        <mxCell id="hrAzMz9kFtenhOnaUR5V-7" value="&lt;p style=&quot;margin:0px;margin-top:4px;text-align:center;&quot;&gt;&lt;i&gt;&amp;lt;&amp;lt;Interface&amp;gt;&amp;gt;&lt;/i&gt;&lt;br&gt;&lt;b&gt;Puppeteer Script Interface&lt;/b&gt;&lt;/p&gt;&lt;hr size=&quot;1&quot;&gt;&lt;p style=&quot;margin:0px;margin-left:4px;&quot;&gt;+ Payload: Promise&amp;lt;Array&amp;gt;&lt;br&gt;+ field2: Type&lt;/p&gt;&lt;hr size=&quot;1&quot;&gt;&lt;p style=&quot;margin:0px;margin-left:4px;&quot;&gt;+ extract () :Promise&amp;lt;Payload&amp;gt;&lt;/p&gt;" style="verticalAlign=top;align=left;overflow=fill;fontSize=12;fontFamily=Helvetica;html=1;rounded=0;shadow=0;comic=0;labelBackgroundColor=none;strokeWidth=1;fillColor=#dae8fc;strokeColor=#6c8ebf;" vertex="1" parent="1">
          <mxGeometry x="300" y="-160" width="190" height="140" as="geometry" />
        </mxCell>
        <mxCell id="hrAzMz9kFtenhOnaUR5V-8" style="edgeStyle=orthogonalEdgeStyle;rounded=0;orthogonalLoop=1;jettySize=auto;html=1;entryX=0.307;entryY=0.007;entryDx=0;entryDy=0;entryPerimeter=0;dashed=1;" edge="1" parent="1" source="hrAzMz9kFtenhOnaUR5V-7" target="hrAzMz9kFtenhOnaUR5V-4">
          <mxGeometry relative="1" as="geometry" />
        </mxCell>
        <mxCell id="hrAzMz9kFtenhOnaUR5V-12" value="Login Script" style="swimlane;html=1;fontStyle=1;align=center;verticalAlign=top;childLayout=stackLayout;horizontal=1;startSize=26;horizontalStack=0;resizeParent=1;resizeLast=0;collapsible=1;marginBottom=0;swimlaneFillColor=#ffffff;rounded=0;shadow=0;comic=0;labelBackgroundColor=none;strokeWidth=1;fillColor=#dae8fc;fontFamily=Verdana;fontSize=12;strokeColor=#6c8ebf;" vertex="1" parent="1">
          <mxGeometry x="25" y="40" width="180" height="120" as="geometry" />
        </mxCell>
        <mxCell id="hrAzMz9kFtenhOnaUR5V-13" value="+ Extract(type): &amp;lt;Promise Array&amp;lt;Browser&amp;gt;" style="text;html=1;strokeColor=none;fillColor=none;align=left;verticalAlign=top;spacingLeft=4;spacingRight=4;whiteSpace=wrap;overflow=hidden;rotatable=0;points=[[0,0.5],[1,0.5]];portConstraint=eastwest;" vertex="1" parent="hrAzMz9kFtenhOnaUR5V-12">
          <mxGeometry y="26" width="180" height="54" as="geometry" />
        </mxCell>
        <mxCell id="hrAzMz9kFtenhOnaUR5V-14" style="edgeStyle=orthogonalEdgeStyle;rounded=0;orthogonalLoop=1;jettySize=auto;html=1;entryX=0.5;entryY=0;entryDx=0;entryDy=0;dashed=1;exitX=0;exitY=0.5;exitDx=0;exitDy=0;" edge="1" parent="1" source="hrAzMz9kFtenhOnaUR5V-7">
          <mxGeometry relative="1" as="geometry">
            <mxPoint x="205" y="-20" as="sourcePoint" />
            <mxPoint x="120" y="40" as="targetPoint" />
          </mxGeometry>
        </mxCell>
        <mxCell id="hrAzMz9kFtenhOnaUR5V-15" value="Google Sheets" style="swimlane;html=1;fontStyle=1;align=center;verticalAlign=top;childLayout=stackLayout;horizontal=1;startSize=26;horizontalStack=0;resizeParent=1;resizeLast=0;collapsible=1;marginBottom=0;swimlaneFillColor=#ffffff;rounded=0;shadow=0;comic=0;labelBackgroundColor=none;strokeWidth=1;fillColor=#e1d5e7;fontFamily=Verdana;fontSize=12;strokeColor=#9673a6;" vertex="1" parent="1">
          <mxGeometry x="650" y="40" width="180" height="120" as="geometry" />
        </mxCell>
        <mxCell id="hrAzMz9kFtenhOnaUR5V-16" value="- connect():Promise&amp;lt;any&amp;gt;&lt;div&gt;&lt;br&gt;&lt;/div&gt;&lt;div&gt;&lt;br&gt;&lt;/div&gt;&lt;div&gt;+ write(ListInfo):Promise&amp;lt;void&amp;gt;&lt;/div&gt;" style="text;html=1;strokeColor=none;fillColor=none;align=left;verticalAlign=top;spacingLeft=4;spacingRight=4;whiteSpace=wrap;overflow=hidden;rotatable=0;points=[[0,0.5],[1,0.5]];portConstraint=eastwest;" vertex="1" parent="hrAzMz9kFtenhOnaUR5V-15">
          <mxGeometry y="26" width="180" height="94" as="geometry" />
        </mxCell>
        <mxCell id="hrAzMz9kFtenhOnaUR5V-18" value="utils Class" style="swimlane;html=1;fontStyle=1;align=center;verticalAlign=top;childLayout=stackLayout;horizontal=1;startSize=26;horizontalStack=0;resizeParent=1;resizeLast=0;collapsible=1;marginBottom=0;swimlaneFillColor=#ffffff;rounded=0;shadow=0;comic=0;labelBackgroundColor=none;strokeWidth=1;fillColor=#d5e8d4;fontFamily=Verdana;fontSize=12;strokeColor=#82b366;" vertex="1" parent="1">
          <mxGeometry x="860" y="40" width="180" height="120" as="geometry" />
        </mxCell>
        <mxCell id="hrAzMz9kFtenhOnaUR5V-19" value="+ checkList(P:List&amp;lt;Array&amp;gt;) : List&amp;lt;Array&amp;gt;&amp;nbsp;&lt;div&gt;&lt;br&gt;&lt;/div&gt;&lt;div&gt;+ cron(Func):&amp;lt;Promise&amp;lt;void&amp;gt;&amp;gt;&lt;/div&gt;" style="text;html=1;strokeColor=none;fillColor=none;align=left;verticalAlign=top;spacingLeft=4;spacingRight=4;whiteSpace=wrap;overflow=hidden;rotatable=0;points=[[0,0.5],[1,0.5]];portConstraint=eastwest;" vertex="1" parent="hrAzMz9kFtenhOnaUR5V-18">
          <mxGeometry y="26" width="180" height="94" as="geometry" />
        </mxCell>
        <mxCell id="hrAzMz9kFtenhOnaUR5V-23" value="property_info" style="swimlane;html=1;fontStyle=0;align=center;verticalAlign=top;childLayout=stackLayout;horizontal=1;startSize=26;horizontalStack=0;resizeParent=1;resizeLast=0;collapsible=1;marginBottom=0;swimlaneFillColor=#ffffff;rounded=0;shadow=0;comic=0;labelBackgroundColor=none;strokeWidth=1;fillColor=#f8cecc;fontFamily=Verdana;fontSize=12;strokeColor=#b85450;" vertex="1" parent="1">
          <mxGeometry x="30" y="390" width="320" height="162" as="geometry" />
        </mxCell>
        <mxCell id="hrAzMz9kFtenhOnaUR5V-42" value="Address : string" style="rounded=0;whiteSpace=wrap;html=1;" vertex="1" parent="hrAzMz9kFtenhOnaUR5V-23">
          <mxGeometry y="26" width="320" height="34" as="geometry" />
        </mxCell>
        <mxCell id="hrAzMz9kFtenhOnaUR5V-39" value="Equity:string" style="rounded=0;whiteSpace=wrap;html=1;" vertex="1" parent="hrAzMz9kFtenhOnaUR5V-23">
          <mxGeometry y="60" width="320" height="34" as="geometry" />
        </mxCell>
        <mxCell id="hrAzMz9kFtenhOnaUR5V-40" value="InterestLevel:string" style="rounded=0;whiteSpace=wrap;html=1;" vertex="1" parent="hrAzMz9kFtenhOnaUR5V-23">
          <mxGeometry y="94" width="320" height="34" as="geometry" />
        </mxCell>
        <mxCell id="hrAzMz9kFtenhOnaUR5V-41" value="Contacts: Array[Contact]" style="rounded=0;whiteSpace=wrap;html=1;" vertex="1" parent="hrAzMz9kFtenhOnaUR5V-23">
          <mxGeometry y="128" width="320" height="34" as="geometry" />
        </mxCell>
        <mxCell id="hrAzMz9kFtenhOnaUR5V-31" value="List" style="swimlane;fontStyle=0;childLayout=stackLayout;horizontal=1;startSize=30;horizontalStack=0;resizeParent=1;resizeParentMax=0;resizeLast=0;collapsible=1;marginBottom=0;whiteSpace=wrap;html=1;fillColor=#f8cecc;strokeColor=#b85450;" vertex="1" parent="1">
          <mxGeometry x="30" y="240" width="320" height="120" as="geometry" />
        </mxCell>
        <mxCell id="hrAzMz9kFtenhOnaUR5V-32" value="Name : string" style="text;strokeColor=none;fillColor=none;align=left;verticalAlign=middle;spacingLeft=4;spacingRight=4;overflow=hidden;points=[[0,0.5],[1,0.5]];portConstraint=eastwest;rotatable=0;whiteSpace=wrap;html=1;" vertex="1" parent="hrAzMz9kFtenhOnaUR5V-31">
          <mxGeometry y="30" width="320" height="30" as="geometry" />
        </mxCell>
        <mxCell id="hrAzMz9kFtenhOnaUR5V-33" value="status: &quot;Active&quot; || &quot;contingency or pending&quot;" style="text;strokeColor=none;fillColor=none;align=left;verticalAlign=middle;spacingLeft=4;spacingRight=4;overflow=hidden;points=[[0,0.5],[1,0.5]];portConstraint=eastwest;rotatable=0;whiteSpace=wrap;html=1;" vertex="1" parent="hrAzMz9kFtenhOnaUR5V-31">
          <mxGeometry y="60" width="320" height="30" as="geometry" />
        </mxCell>
        <mxCell id="hrAzMz9kFtenhOnaUR5V-34" value="items lengths: number" style="text;strokeColor=none;fillColor=none;align=left;verticalAlign=middle;spacingLeft=4;spacingRight=4;overflow=hidden;points=[[0,0.5],[1,0.5]];portConstraint=eastwest;rotatable=0;whiteSpace=wrap;html=1;" vertex="1" parent="hrAzMz9kFtenhOnaUR5V-31">
          <mxGeometry y="90" width="320" height="30" as="geometry" />
        </mxCell>
        <mxCell id="hrAzMz9kFtenhOnaUR5V-58" style="edgeStyle=orthogonalEdgeStyle;rounded=0;orthogonalLoop=1;jettySize=auto;html=1;exitX=0.5;exitY=0;exitDx=0;exitDy=0;entryX=0.5;entryY=1;entryDx=0;entryDy=0;dashed=1;" edge="1" parent="1" source="hrAzMz9kFtenhOnaUR5V-43" target="hrAzMz9kFtenhOnaUR5V-41">
          <mxGeometry relative="1" as="geometry" />
        </mxCell>
        <mxCell id="hrAzMz9kFtenhOnaUR5V-43" value="Contact" style="swimlane;fontStyle=0;childLayout=stackLayout;horizontal=1;startSize=30;horizontalStack=0;resizeParent=1;resizeParentMax=0;resizeLast=0;collapsible=1;marginBottom=0;whiteSpace=wrap;html=1;fillColor=#f8cecc;strokeColor=#b85450;" vertex="1" parent="1">
          <mxGeometry x="30" y="640" width="320" height="90" as="geometry" />
        </mxCell>
        <mxCell id="hrAzMz9kFtenhOnaUR5V-44" value="Name : string" style="text;strokeColor=none;fillColor=none;align=left;verticalAlign=middle;spacingLeft=4;spacingRight=4;overflow=hidden;points=[[0,0.5],[1,0.5]];portConstraint=eastwest;rotatable=0;whiteSpace=wrap;html=1;" vertex="1" parent="hrAzMz9kFtenhOnaUR5V-43">
          <mxGeometry y="30" width="320" height="30" as="geometry" />
        </mxCell>
        <mxCell id="hrAzMz9kFtenhOnaUR5V-45" value="address: string" style="text;strokeColor=none;fillColor=none;align=left;verticalAlign=middle;spacingLeft=4;spacingRight=4;overflow=hidden;points=[[0,0.5],[1,0.5]];portConstraint=eastwest;rotatable=0;whiteSpace=wrap;html=1;" vertex="1" parent="hrAzMz9kFtenhOnaUR5V-43">
          <mxGeometry y="60" width="320" height="30" as="geometry" />
        </mxCell>
        <mxCell id="hrAzMz9kFtenhOnaUR5V-53" style="edgeStyle=orthogonalEdgeStyle;rounded=0;orthogonalLoop=1;jettySize=auto;html=1;" edge="1" parent="1" source="hrAzMz9kFtenhOnaUR5V-47">
          <mxGeometry relative="1" as="geometry">
            <mxPoint x="120" y="30" as="targetPoint" />
            <Array as="points">
              <mxPoint x="440" y="-405" />
              <mxPoint x="440" y="-250" />
              <mxPoint x="121" y="-250" />
              <mxPoint x="121" y="30" />
            </Array>
          </mxGeometry>
        </mxCell>
        <mxCell id="hrAzMz9kFtenhOnaUR5V-47" value="setup" style="swimlane;html=1;fontStyle=1;align=center;verticalAlign=top;childLayout=stackLayout;horizontal=1;startSize=26;horizontalStack=0;resizeParent=1;resizeLast=0;collapsible=1;marginBottom=0;swimlaneFillColor=#ffffff;rounded=0;shadow=0;comic=0;labelBackgroundColor=none;strokeWidth=1;fontFamily=Verdana;fontSize=12" vertex="1" parent="1">
          <mxGeometry x="540" y="-440" width="200" height="90" as="geometry" />
        </mxCell>
        <mxCell id="hrAzMz9kFtenhOnaUR5V-48" value="+ deploy( ):Promise&amp;lt;Browser&amp;gt;&lt;div&gt;&lt;br&gt;&lt;/div&gt;&lt;div&gt;+ smooth_landing():Promise&amp;lt;void&amp;gt;&lt;/div&gt;" style="text;html=1;strokeColor=none;fillColor=none;align=left;verticalAlign=top;spacingLeft=4;spacingRight=4;whiteSpace=wrap;overflow=hidden;rotatable=0;points=[[0,0.5],[1,0.5]];portConstraint=eastwest;" vertex="1" parent="hrAzMz9kFtenhOnaUR5V-47">
          <mxGeometry y="26" width="200" height="64" as="geometry" />
        </mxCell>
        <mxCell id="hrAzMz9kFtenhOnaUR5V-64" style="edgeStyle=orthogonalEdgeStyle;rounded=0;orthogonalLoop=1;jettySize=auto;html=1;entryX=0.5;entryY=0;entryDx=0;entryDy=0;" edge="1" parent="1" source="hrAzMz9kFtenhOnaUR5V-50" target="hrAzMz9kFtenhOnaUR5V-47">
          <mxGeometry relative="1" as="geometry" />
        </mxCell>
        <mxCell id="hrAzMz9kFtenhOnaUR5V-50" value="&lt;ol&gt;&lt;li&gt;browser instance&amp;nbsp;&lt;/li&gt;&lt;li&gt;check login&lt;/li&gt;&lt;li&gt;if logged in return browser&amp;nbsp;&lt;/li&gt;&lt;li&gt;if not logged in run Login Script&lt;/li&gt;&lt;li&gt;return browser&amp;nbsp;&lt;/li&gt;&lt;/ol&gt;" style="whiteSpace=wrap;html=1;aspect=fixed;align=left;fillColor=#fa6800;fontColor=#000000;strokeColor=#C73500;" vertex="1" parent="1">
          <mxGeometry x="535" y="-260" width="210" height="210" as="geometry" />
        </mxCell>
        <mxCell id="hrAzMz9kFtenhOnaUR5V-59" value="Main Process" style="swimlane;whiteSpace=wrap;html=1;fillColor=#6d8764;fontColor=#ffffff;strokeColor=#3A5431;" vertex="1" parent="1">
          <mxGeometry x="520" y="425" width="280" height="70" as="geometry" />
        </mxCell>
        <mxCell id="hrAzMz9kFtenhOnaUR5V-60" value="Execute () :Promise&amp;lt;void&amp;gt;" style="text;html=1;align=center;verticalAlign=middle;resizable=0;points=[];autosize=1;strokeColor=none;fillColor=none;" vertex="1" parent="hrAzMz9kFtenhOnaUR5V-59">
          <mxGeometry y="35" width="160" height="30" as="geometry" />
        </mxCell>
        <mxCell id="hrAzMz9kFtenhOnaUR5V-61" value="&lt;ol&gt;&lt;li&gt;setup&amp;nbsp;&lt;/li&gt;&lt;li&gt;call scrap list&amp;nbsp;&lt;/li&gt;&lt;li&gt;call utils.checklist&amp;nbsp;&lt;/li&gt;&lt;li&gt;scraplist&lt;/li&gt;&lt;li&gt;call google sheets.write&amp;nbsp;&lt;/li&gt;&lt;/ol&gt;" style="whiteSpace=wrap;html=1;aspect=fixed;align=left;fillColor=#6d8764;fontColor=#ffffff;strokeColor=#3A5431;" vertex="1" parent="1">
          <mxGeometry x="860" y="366" width="210" height="210" as="geometry" />
        </mxCell>
      </root>
    </mxGraphModel>
  </diagram>
</mxfile>
